<svg width="46" height="46" viewBox="0 0 46 46" fill="none" xmlns="http://www.w3.org/2000/svg">
<path fill-rule="evenodd" clip-rule="evenodd" d="M17.432 29.7083H14.8599V15.6879C15.7875 15.5193 17.0736 15.3928 18.8235 15.3928C20.721 15.3928 22.1125 15.7933 23.021 16.5523C23.8644 17.2481 24.4106 18.3655 24.4106 19.6938C24.4106 21.0431 23.9889 22.1605 23.1878 22.9195C22.1547 23.9526 20.5313 24.4375 18.697 24.4375C18.2121 24.4375 17.7694 24.4164 17.432 24.3532V29.7083ZM18.9289 17.3746C18.2121 17.3746 17.7061 17.4378 17.4339 17.5011V22.3081C17.7483 22.3924 18.1699 22.4135 18.6989 22.4135C20.6367 22.4135 21.8174 21.4648 21.8174 19.7992C21.8174 18.2179 20.721 17.3746 18.9289 17.3746Z" fill="#F4F4F4"/>
<path d="M27.7246 29.9403C26.4787 29.9403 25.3632 29.624 24.6042 29.2024L25.1102 27.3259C25.7006 27.6844 26.8161 28.0639 27.7457 28.0639C28.8842 28.0639 29.3902 27.6 29.3902 26.9254C29.3902 26.2296 28.9685 25.8712 27.7035 25.4284C25.7006 24.7327 24.8572 23.6364 24.8783 22.4346C24.8783 20.6214 26.3733 19.2089 28.7577 19.2089C29.8962 19.2089 30.8852 19.504 31.4774 19.8203L30.9714 21.6545C30.3074 21.2814 29.5613 21.0786 28.7998 21.0642C27.8722 21.0642 27.3662 21.5069 27.3662 22.1394C27.3662 22.793 27.8511 23.1093 29.1582 23.5731C31.0136 24.2478 31.878 25.1965 31.8991 26.7145C31.8991 28.5699 30.4424 29.9403 27.7246 29.9403Z" fill="#F4F4F4"/>
<path fill-rule="evenodd" clip-rule="evenodd" d="M33.0779 5.42994C26.3798 4.68742 19.6202 4.68742 12.9222 5.42994C9.06586 5.86119 5.95128 8.89911 5.49894 12.7746C4.70429 19.5684 4.70429 26.4317 5.49894 33.2254C5.95128 37.1009 9.06394 40.1389 12.9222 40.5701C19.6203 41.3119 26.3798 41.3119 33.0779 40.5701C36.9342 40.1389 40.0488 37.1009 40.5011 33.2254C41.2959 26.4317 41.2959 19.5684 40.5011 12.7746C40.0488 8.89911 36.9361 5.86119 33.0779 5.42994ZM13.2404 8.28577C19.7269 7.56678 26.2731 7.56678 32.7597 8.28577C35.3089 8.57327 37.3501 10.5839 37.6472 13.11C38.4157 19.681 38.4157 26.3191 37.6472 32.89C37.4935 34.1264 36.9276 35.2748 36.0407 36.1498C35.1539 37.0248 33.998 37.5753 32.7597 37.7124C26.2731 38.4314 19.7269 38.4314 13.2404 37.7124C12.0021 37.5753 10.8462 37.0248 9.95932 36.1498C9.07249 35.2748 8.50652 34.1264 8.35286 32.89C7.58437 26.3191 7.58437 19.681 8.35286 13.11C8.50652 11.8737 9.07249 10.7253 9.95932 9.85026C10.8462 8.97524 12.0021 8.42283 13.2404 8.28577Z" fill="#F4F4F4"/>
</svg>
