<svg width="46" height="46" viewBox="0 0 46 46" fill="none" xmlns="http://www.w3.org/2000/svg">
<path fill-rule="evenodd" clip-rule="evenodd" d="M30.8123 20.5582V14.7392H33.4056V26.8199C33.4056 27.8741 33.4477 29.0126 33.4899 29.7084H31.1707L31.0653 28.0849H31.0231C30.4098 29.2234 29.1678 29.9403 27.669 29.9403C25.2252 29.9403 23.2856 27.853 23.2856 24.6905C23.2645 21.2539 25.4131 19.2089 27.8817 19.2089C29.2943 19.2089 30.3063 19.7992 30.7701 20.5582H30.8123ZM30.728 26.0188C30.7912 25.7869 30.8123 25.5339 30.8123 25.2598V23.7207C30.8123 23.5099 30.7912 23.2569 30.7491 23.046C30.5171 22.034 29.6949 21.2118 28.5142 21.2118C26.8467 21.2118 25.921 22.6876 25.921 24.6062C25.921 26.4826 26.8486 27.853 28.4931 27.853C29.5473 27.853 30.475 27.1362 30.728 26.0188Z" fill="#F4F4F4"/>
<path d="M18.9827 22.4346L23.3048 29.7083H20.311L18.7719 26.8832C18.275 26.0046 17.804 25.1117 17.3593 24.2056H17.2961C16.9587 25.0278 16.5792 25.7868 16.01 26.8832L14.5974 29.7083H11.6246L15.8413 22.5189L11.7933 15.4982H14.7641L16.3051 18.4288C16.769 19.3143 17.1063 20.01 17.4858 20.8112H17.528C17.9075 19.9257 18.2026 19.2932 18.6454 18.4288L20.1634 15.4982H23.1342L18.9827 22.4346Z" fill="#F4F4F4"/>
<path fill-rule="evenodd" clip-rule="evenodd" d="M33.0779 5.42994C26.3798 4.68742 19.6202 4.68742 12.9222 5.42994C9.06587 5.86119 5.95129 8.89911 5.49896 12.7746C4.70429 19.5684 4.70429 26.4317 5.49896 33.2254C5.95129 37.1009 9.06396 40.1389 12.9222 40.5701C19.6203 41.3119 26.3798 41.3119 33.0779 40.5701C36.9342 40.1389 40.0488 37.1009 40.5011 33.2254C41.2957 26.4317 41.2957 19.5684 40.5011 12.7746C40.0488 8.89911 36.9361 5.86119 33.0779 5.42994ZM13.2404 8.28577C19.727 7.56678 26.2731 7.56678 32.7597 8.28577C35.3089 8.57327 37.3501 10.5839 37.6472 13.11C38.4157 19.681 38.4157 26.3191 37.6472 32.89C37.4935 34.1264 36.9276 35.2748 36.0407 36.1498C35.1539 37.0248 33.998 37.5753 32.7597 37.7124C26.2731 38.4314 19.7269 38.4314 13.2404 37.7124C12.0021 37.5753 10.8462 37.0248 9.95933 36.1498C9.0725 35.2748 8.50654 34.1264 8.35287 32.89C7.58438 26.3191 7.58438 19.681 8.35287 13.11C8.50654 11.8737 9.0725 10.7253 9.95933 9.85026C10.8462 8.97524 12.0021 8.42283 13.2404 8.28577Z" fill="#F4F4F4"/>
</svg>
