<svg width="46" height="46" viewBox="0 0 46 46" fill="none" xmlns="http://www.w3.org/2000/svg">
<path fill-rule="evenodd" clip-rule="evenodd" d="M21.5587 29.7083L20.2745 25.6814H15.7589L14.5379 29.7083H11.8604L16.4144 15.4982H19.7244L24.3436 29.7083H21.5587ZM17.2788 20.2208L16.1824 23.7207H19.8299L18.7124 20.2208C18.4943 19.5026 18.2962 18.7785 18.1183 18.0493C18.0777 17.8875 18.0368 17.7259 17.9956 17.5643H17.9534L17.7349 18.4556C17.5931 19.0498 17.4474 19.6669 17.2788 20.2208ZM33.8944 24.2056C33.8944 24.6905 33.8522 25.07 33.81 25.3019H26.9369C27.0001 27.1573 28.4549 27.9584 30.0994 27.9584C31.3011 27.9584 32.1655 27.7898 32.9456 27.4946L33.3251 29.2867C32.4396 29.6451 31.2168 29.9403 29.7409 29.9403C26.4098 29.9403 24.449 27.8741 24.449 24.7327C24.449 21.8864 26.1778 19.2088 29.4668 19.2088C32.8191 19.2088 33.8944 21.9497 33.8944 24.2056ZM29.3193 20.9798C27.7169 20.9798 27.0423 22.4346 26.9369 23.4888H31.4487C31.4679 22.54 31.0462 20.9798 29.3193 20.9798Z" fill="#F4F4F4"/>
<path fill-rule="evenodd" clip-rule="evenodd" d="M33.0779 5.42994C26.3798 4.68742 19.6202 4.68742 12.9222 5.42994C9.06587 5.86119 5.95129 8.89911 5.49896 12.7746C4.70429 19.5684 4.70429 26.4317 5.49896 33.2254C5.95129 37.1009 9.06396 40.1389 12.9222 40.5701C19.6203 41.3119 26.3798 41.3119 33.0779 40.5701C36.9342 40.1389 40.0488 37.1009 40.5011 33.2254C41.2957 26.4317 41.2957 19.5684 40.5011 12.7746C40.0488 8.89911 36.9361 5.86119 33.0779 5.42994ZM13.2404 8.28577C19.727 7.56678 26.2731 7.56678 32.7597 8.28577C35.3089 8.57327 37.3501 10.5839 37.6472 13.11C38.4157 19.681 38.4157 26.3191 37.6472 32.89C37.4935 34.1264 36.9276 35.2748 36.0407 36.1498C35.1539 37.0248 33.998 37.5753 32.7597 37.7124C26.2731 38.4314 19.7269 38.4314 13.2404 37.7124C12.0021 37.5753 10.8462 37.0248 9.95933 36.1498C9.0725 35.2748 8.50654 34.1264 8.35287 32.89C7.58438 26.3191 7.58438 19.681 8.35287 13.11C8.50654 11.8737 9.0725 10.7253 9.95933 9.85026C10.8462 8.97524 12.0021 8.42283 13.2404 8.28577Z" fill="#F4F4F4"/>
</svg>
