<svg width="54" height="55" viewBox="0 0 54 55" fill="none" xmlns="http://www.w3.org/2000/svg">
<g clip-path="url(#clip0_573_1407)">
<path d="M47.4085 19.199L30.4913 6.20644C29.3833 5.35562 27.5214 5.35942 26.3047 6.21098C25.0727 7.0714 24.9307 8.49777 26.0255 9.39721L33.0611 15.1227H11.5799C9.80666 15.1235 8.10206 16.3108 7.76572 17.782C7.41799 19.2799 8.62161 20.5082 10.4653 20.5139H21.3371L1.85964 35.4638C0.0292209 36.8644 -0.561514 39.196 0.591373 40.6702C1.7605 42.1708 4.24927 42.1737 6.09867 40.6786L16.6883 32.0126C16.6883 32.0126 16.533 33.1816 16.5453 33.8838C16.8637 39.8117 21.383 45.3068 26.9787 47.7405C36.6207 52.0112 49.6387 48.1017 53.2993 36.9718C55.0402 31.1335 53.7056 24.191 47.4084 19.1991L47.4085 19.199ZM29.4748 39.8938C21.8596 35.9079 21.8595 25.8888 29.4748 21.9028C37.0901 17.9168 46.6609 22.9264 46.6609 30.8983C46.6609 38.8702 37.0901 43.8798 29.4748 39.8938ZM31.794 36.3068C26.9366 33.7664 26.9366 27.3806 31.794 24.8402C36.6514 22.2997 42.756 25.4925 42.756 30.5735C42.756 35.6545 36.6513 38.8473 31.794 36.3068Z" fill="#F4F4F4"/>
</g>
<defs>
<clipPath id="clip0_573_1407">
<rect width="54.0004" height="54.0004" fill="white" transform="translate(0 0.5)"/>
</clipPath>
</defs>
</svg>
