<svg width="48" height="48" viewBox="0 0 48 48" fill="none" xmlns="http://www.w3.org/2000/svg">
<path d="M4 2L7.62249 42.626L23.8785 47.14L40.1769 42.6204L43.805 2H4.00282H4ZM37.0707 40.0361L23.9688 43.667V43.6868L23.935 43.6755L23.9011 43.6868V43.667L10.7992 40.0361L7.70148 5.32343H40.1684L37.0707 40.0361ZM30.0176 25.3712L29.442 31.8319L23.8785 33.3328L18.3291 31.8375L17.9737 27.8596H12.9716L13.6684 35.6857L23.8983 38.5154L34.0971 35.6857L35.4654 20.3889H17.305L16.8508 15.2853H35.9168L36.3626 10.3029H11.403L12.7487 25.3712H30.0176Z" fill="#F4F4F4"/>
</svg>
