<svg width="46" height="45" viewBox="0 0 46 45" fill="none" xmlns="http://www.w3.org/2000/svg">
<path d="M27.2188 27.4219H18.7812C15.4246 27.4219 12.2054 28.7553 9.83193 31.1288C7.45842 33.5023 6.125 36.7215 6.125 40.0781C6.125 40.0781 12.4531 42.8906 23 42.8906C33.5469 42.8906 39.875 40.0781 39.875 40.0781C39.875 36.7215 38.5416 33.5023 36.1681 31.1288C33.7946 28.7553 30.5754 27.4219 27.2188 27.4219Z" stroke="#F4F4F4" stroke-width="2" stroke-miterlimit="10" stroke-linecap="square"/>
<path d="M13.8594 12.0002C13.8594 9.576 14.8224 7.25105 16.5366 5.53685C18.2508 3.82265 20.5758 2.85962 23 2.85962C25.4242 2.85962 27.7492 3.82265 29.4634 5.53685C31.1776 7.25105 32.1406 9.576 32.1406 12.0002C32.1406 17.074 28.0484 22.5 23 22.5C17.9516 22.5 13.8594 17.074 13.8594 12.0002Z" stroke="#F4F4F4" stroke-width="2" stroke-miterlimit="10" stroke-linecap="square"/>
</svg>
