<svg width="46" height="45" viewBox="0 0 46 45" fill="none" xmlns="http://www.w3.org/2000/svg">
<path d="M41.6875 43.4409V44.4409H43.6875V43.4409H41.6875ZM3.01562 43.4409V44.4409H5.01562V43.4409H3.01562ZM5.01562 12.3041C5.01562 11.7518 4.56791 11.3041 4.01562 11.3041C3.46334 11.3041 3.01562 11.7518 3.01562 12.3041H5.01562ZM43.6875 12.3041C43.6875 11.7518 43.2398 11.3041 42.6875 11.3041C42.1352 11.3041 41.6875 11.7518 41.6875 12.3041H43.6875ZM5.01562 43.4409V12.3041H3.01562V43.4409H5.01562ZM41.6875 12.3041V43.4409H43.6875V12.3041H41.6875Z" fill="#F4F4F4"/>
<path d="M42.6875 12.3041L23.3516 1.40625L4.01562 12.3041" stroke="#F4F4F4" stroke-width="2" stroke-miterlimit="10" stroke-linecap="round"/>
</svg>
