<?xml version="1.0" encoding="UTF-8"?><svg xmlns="http://www.w3.org/2000/svg" width="1080" height="1080" xmlns:xlink="http://www.w3.org/1999/xlink" viewBox="0 0 1080 1080"><defs><linearGradient id="uuid-65508281-b34a-46c2-aae7-1f5f8a7362a0" x1="874.0488" y1="605.9512" x2="874.0488" y2="474.0488" gradientUnits="userSpaceOnUse"><stop offset="0" stop-color="#fd4505"/><stop offset=".03" stop-color="#fd602a"/><stop offset=".07" stop-color="#fd7f53"/><stop offset=".11" stop-color="#fd9876"/><stop offset=".15" stop-color="#fdac90"/><stop offset=".19" stop-color="#fdbaa3"/><stop offset=".24" stop-color="#fdc3af"/><stop offset=".28" stop-color="#fdc6b3"/><stop offset=".67" stop-color="#d6c2fe"/><stop offset="1" stop-color="#9d70ff"/></linearGradient><linearGradient id="uuid-c4a2ad70-565e-44ab-a027-5a1d8a8e947f" x1="140" y1="540" x2="762.1814" y2="540" xlink:href="#uuid-65508281-b34a-46c2-aae7-1f5f8a7362a0"/><linearGradient id="uuid-659a6552-50de-44b6-8d75-6c45e9f0de33" x1="449.9958" y1="851.0907" x2="936.268" y2="851.0907" xlink:href="#uuid-65508281-b34a-46c2-aae7-1f5f8a7362a0"/><linearGradient id="uuid-b3a4abb7-7bd2-4ccb-b4fb-8db0e9af379c" x1="449.9958" y1="851.0907" x2="936.268" y2="851.0907" xlink:href="#uuid-65508281-b34a-46c2-aae7-1f5f8a7362a0"/><linearGradient id="uuid-258910a3-583c-46a6-8f1c-e5c9d8e00d41" x1="363.0361" y1="42.2548" x2="363.0361" y2="1037.7452" gradientUnits="userSpaceOnUse"><stop offset="0" stop-color="#9d70ff"/><stop offset=".33" stop-color="#d6c2fe"/><stop offset=".72" stop-color="#fdc6b3"/><stop offset=".76" stop-color="#fdc3af"/><stop offset=".81" stop-color="#fdbaa3"/><stop offset=".85" stop-color="#fdac90"/><stop offset=".89" stop-color="#fd9876"/><stop offset=".93" stop-color="#fd7f53"/><stop offset=".97" stop-color="#fd602a"/><stop offset="1" stop-color="#fd4505"/></linearGradient></defs><g id="uuid-0d4536a3-2bd9-40c8-a8ce-d84dbf684849"><path id="uuid-76febd14-5478-46ab-885b-c8b9a0f3a898" d="m874.0488,605.9512c-36.366,0-65.9512-29.5852-65.9512-65.9512s29.5852-65.9512,65.9512-65.9512,65.9512,29.5852,65.9512,65.9512-29.5852,65.9512-65.9512,65.9512Zm0-124.4363c-32.2489,0-58.4851,26.2361-58.4851,58.4851s26.2361,58.4851,58.4851,58.4851,58.4851-26.2361,58.4851-58.4851-26.2361-58.4851-58.4851-58.4851Z" style="fill:url(#uuid-65508281-b34a-46c2-aae7-1f5f8a7362a0); stroke-width:0px;"/></g><g id="uuid-74a31ddc-5284-4336-a1f5-af28ff6ba2c1"><path id="uuid-32bd4791-8bf1-4c74-8e31-4512576fd478" d="m690.2076,236.3754c30.1883,0,54.752,24.5637,54.752,54.752s-24.5637,54.752-54.752,54.752h-239.5648c-106.7912.224-193.6727,87.3045-193.6727,194.1206s87.0805,194.1206,194.1206,194.1206,194.1206-87.0805,194.1206-194.1953c.0497-30.1633,24.6135-54.6773,54.752-54.6773s54.7022,24.5388,54.752,54.752c0,81.0827-31.5819,157.3372-88.947,214.7023-57.3403,57.3403-133.5948,88.9222-214.6775,88.9222s-157.3621-31.5819-214.7024-88.9222c-57.3402-57.3403-88.9222-133.5948-88.9222-214.7023s31.5322-157.2377,88.7977-214.553c57.2656-57.3154,133.3957-88.9471,214.4037-89.0715h239.5398m0-7.4662h-239.5399c-171.6225.224-310.6676,139.4184-310.6676,311.0907s139.2691,311.0907,311.0907,311.0907,311.0907-139.294,311.0907-311.0907v-.0747c-.0497-34.3444-27.8986-62.1435-62.2181-62.1435s-62.1684,27.7991-62.2181,62.1435v.0747c0,103.083-83.5714,186.6544-186.6544,186.6544s-186.6544-83.5715-186.6544-186.6544,83.3474-186.4305,186.2314-186.6544h239.5399c34.3693,0,62.2181-27.8488,62.2181-62.2181s-27.8488-62.2181-62.2181-62.2181h0Z" style="fill:url(#uuid-c4a2ad70-565e-44ab-a027-5a1d8a8e947f); stroke-width:0px;"/></g><g id="uuid-a733b6f6-424c-4468-8faa-6a37f2c90543"><path id="uuid-1c79bba0-fcf5-496b-896f-dac8022c008a" d="m874.0498,664.4363c-34.3444,0-62.1684,27.7991-62.2181,62.1435v.0747c0,103.083-83.5715,186.6544-186.6544,186.6544-.3235,0-.6471,0-.9706-.0249h0l-111.9927.0249c-34.3693,0-62.2181,27.8488-62.2181,62.2181s27.8488,62.2181,62.2181,62.2181h115.1782c170.7764-1.2195,308.8758-140.0406,308.8758-311.0907v-.0747c-.0497-34.3444-27.8986-62.1435-62.2181-62.1435Z" style="fill:url(#uuid-659a6552-50de-44b6-8d75-6c45e9f0de33); stroke-width:0px;"/><path id="uuid-9c38903d-f434-42b4-8473-b70ab9a594ac" d="m874.0498,664.4363c-34.3444,0-62.1684,27.7991-62.2181,62.1435v.0747c0,103.083-83.5715,186.6544-186.6544,186.6544-.3235,0-.6471,0-.9706-.0249h0l-111.9927.0249c-34.3693,0-62.2181,27.8488-62.2181,62.2181s27.8488,62.2181,62.2181,62.2181h115.1782c170.7764-1.2195,308.8758-140.0406,308.8758-311.0907v-.0747c-.0497-34.3444-27.8986-62.1435-62.2181-62.1435Z" style="fill:url(#uuid-b3a4abb7-7bd2-4ccb-b4fb-8db0e9af379c); stroke-width:0px;"/></g><g id="uuid-183fc7ce-4442-4d46-a894-6983aaf590dd"><path id="uuid-695b9597-1460-49d5-b434-e4805195e418" d="m425.2474,229.4819c-44.7634,3.8107-86.9071,16.6878-124.422,36.7877V103.1778c0-16.8123,6.9688-32.0555,18.2104-43.0893,11.2673-11.0089,26.8073-17.8336,44.0006-17.8336,34.3611,0,62.211,27.2734,62.211,60.9229v126.3042Zm.0068,612.7602v-110.3302c-.0025-.0003-.0043-.0008-.0068-.0011v-377.0962c-50.6894,7.2728-94.9188,34.048-124.422,72.3303v224.8368c.0062.0082.013.0157.0192.0239-.0056.3474-.0267.6912-.0267,1.04v323.7731c0,33.6488,27.8542,60.9264,62.2147,60.9264,9.665,0,18.8149-2.1581,26.975-6.0092,20.855-9.8397,35.2466-30.7352,35.2466-54.9225v-127.0815c-.0025-.0002-.0043-.0005-.0068-.0006v-7.4898c.0025.0002.0043.0005.0068.0006Z" style="fill:url(#uuid-258910a3-583c-46a6-8f1c-e5c9d8e00d41); stroke-width:0px;"/></g></svg>