<svg width="46" height="45" viewBox="0 0 46 45" fill="none" xmlns="http://www.w3.org/2000/svg">
<path d="M2.60938 17.5781V35.8594C2.60938 36.7918 2.97977 37.686 3.63908 38.3453C4.29839 39.0046 5.1926 39.375 6.125 39.375H39.875C40.8074 39.375 41.7016 39.0046 42.3609 38.3453C43.0202 37.686 43.3906 36.7918 43.3906 35.8594V17.5781" stroke="#F4F4F4" stroke-width="2" stroke-miterlimit="10" stroke-linecap="square"/>
<path d="M43.3906 12.6562V9.14062C43.3906 8.20822 43.0202 7.31401 42.3609 6.6547C41.7016 5.9954 40.8074 5.625 39.875 5.625H6.125C5.1926 5.625 4.29839 5.9954 3.63908 6.6547C2.97977 7.31401 2.60938 8.20822 2.60938 9.14062V12.6562L23 23.9062L43.3906 12.6562Z" stroke="#F4F4F4" stroke-width="2" stroke-miterlimit="10" stroke-linecap="square"/>
</svg>
