<svg width="46" height="46" viewBox="0 0 46 46" fill="none" xmlns="http://www.w3.org/2000/svg">
<path fill-rule="evenodd" clip-rule="evenodd" d="M13.2404 8.28767C19.727 7.56867 26.2731 7.56867 32.7597 8.28767C33.998 8.42472 35.1539 8.97522 36.0407 9.85023C36.9276 10.7252 37.4935 11.8737 37.6472 13.11C38.4157 19.6809 38.4157 26.3191 37.6472 32.89C37.4935 34.1263 36.9276 35.2748 36.0407 36.1498C35.1539 37.0248 33.998 37.5753 32.7597 37.7123C26.2731 38.4314 19.7269 38.4314 13.2404 37.7123C12.0021 37.5753 10.8462 37.0248 9.95933 36.1498C9.0725 35.2748 8.50654 34.1263 8.35287 32.89C7.58438 26.3191 7.58438 19.6809 8.35287 13.11C8.50654 11.8737 9.0725 10.7252 9.95933 9.85023C10.8462 8.97522 12.0021 8.42472 13.2404 8.28767ZM33.0779 5.43183C26.3798 4.68931 19.6202 4.68931 12.9222 5.43183C9.06587 5.86117 5.95129 8.89908 5.49896 12.7746C4.70429 19.5684 4.70429 26.4316 5.49896 33.2254C5.95129 37.1009 9.06396 40.1388 12.9222 40.5701C19.6203 41.3118 26.3798 41.3118 33.0779 40.5701C36.9342 40.1388 40.0488 37.1009 40.5011 33.2254C41.2957 26.4316 41.2957 19.5684 40.5011 12.7746C40.0488 8.89908 36.9361 5.86117 33.0779 5.42992V5.43183ZM17.9688 29.7083H15.3966V15.6879C16.3243 15.5192 17.6104 15.3927 19.3603 15.3927C21.2578 15.3927 22.6493 15.7933 23.5559 16.5523C24.3992 17.2481 24.9474 18.3655 24.9474 19.6937C24.9474 21.0431 24.5257 22.1605 23.7245 22.9195C22.6895 23.9526 21.068 24.4375 19.2338 24.4375C18.7489 24.4375 18.3061 24.4164 17.9688 24.3532V29.7083ZM19.4638 17.3746C18.7489 17.3746 18.2429 17.4378 17.9688 17.5011V22.3081C18.285 22.3924 18.7067 22.4135 19.2338 22.4135C21.1735 22.4135 22.3541 21.4648 22.3541 19.7992C22.3541 18.2179 21.2578 17.3746 19.4657 17.3746H19.4638ZM28.5699 29.7083H25.9766V22.7508C25.9766 21.3593 25.9575 20.3684 25.8923 19.4407H28.1482L28.2325 21.4015H28.3169C28.8229 19.9468 30.0246 19.2088 31.121 19.2088C31.374 19.2088 31.5235 19.2299 31.7343 19.2721V21.7178C31.4844 21.6627 31.2293 21.6344 30.9734 21.6334C29.7295 21.6334 28.8861 22.4346 28.6542 23.5942C28.6019 23.8581 28.5737 24.1263 28.5699 24.3953V29.7083Z" fill="#F4F4F4"/>
</svg>
