<svg width="46" height="46" viewBox="0 0 46 46" fill="none" xmlns="http://www.w3.org/2000/svg">
<path d="M24.3954 29.7083H15.962V15.4982H18.5553V27.5368H24.3954V29.7083ZM28.0025 29.7083H25.4112V22.7508C25.4112 21.3593 25.3901 20.3684 25.3269 19.4408H27.5828L27.6671 21.4015H27.7515C28.2575 19.9468 29.4573 19.2088 30.5555 19.2088C30.8085 19.2088 30.9561 19.2299 31.167 19.2721V21.7178C30.9177 21.6628 30.6632 21.6346 30.408 21.6334C29.1621 21.6334 28.3188 22.4346 28.0888 23.5942C28.0365 23.8581 28.0083 24.1263 28.0045 24.3953V29.7083H28.0025Z" fill="#F4F4F4"/>
<path fill-rule="evenodd" clip-rule="evenodd" d="M33.0779 5.42994C26.3798 4.68742 19.6202 4.68742 12.9222 5.42994C9.06587 5.86119 5.95129 8.89911 5.49896 12.7746C4.70429 19.5684 4.70429 26.4317 5.49896 33.2254C5.95129 37.1009 9.06396 40.1389 12.9222 40.5701C19.6203 41.3119 26.3798 41.3119 33.0779 40.5701C36.9342 40.1389 40.0488 37.1009 40.5011 33.2254C41.2957 26.4317 41.2957 19.5684 40.5011 12.7746C40.0488 8.89911 36.9361 5.86119 33.0779 5.42994ZM13.2404 8.28577C19.727 7.56678 26.2731 7.56678 32.7597 8.28577C35.3089 8.57327 37.3501 10.5839 37.6472 13.11C38.4157 19.681 38.4157 26.3191 37.6472 32.89C37.4935 34.1264 36.9276 35.2748 36.0407 36.1498C35.1539 37.0248 33.998 37.5753 32.7597 37.7124C26.2731 38.4314 19.7269 38.4314 13.2404 37.7124C12.0021 37.5753 10.8462 37.0248 9.95933 36.1498C9.0725 35.2748 8.50654 34.1264 8.35287 32.89C7.58438 26.3191 7.58438 19.681 8.35287 13.11C8.50654 11.8737 9.0725 10.7253 9.95933 9.85026C10.8462 8.97524 12.0021 8.42283 13.2404 8.28577Z" fill="#F4F4F4"/>
</svg>
