<svg width="48" height="48" viewBox="0 0 48 48" fill="none" xmlns="http://www.w3.org/2000/svg">
<path d="M3.88184 2H44.1198L41.9238 40.416L24.0038 47.136L6.07984 40.416L3.88184 2ZM8.11984 6L9.92384 37.584L24.0038 42.864L38.0798 37.584L39.8818 6H8.11984ZM10.9658 10H36.6598L36.4438 13.774L21.8638 20.754H36.0438L35.2358 34.922L23.9998 39.136L12.7638 34.922L12.5358 30.934V30.926L12.3858 28.146H16.4058L16.5298 30.714L16.6098 32.094L23.9998 34.862L31.3918 32.09L31.8118 24.75H12.1798L11.9678 21.054L26.7098 14H23.9998L11.4898 14.024L10.9658 10Z" fill="#F4F4F4"/>
</svg>
