<svg width="48" height="48" viewBox="0 0 48 48" fill="none" xmlns="http://www.w3.org/2000/svg">
<mask id="mask0_495_332" style="mask-type:luminance" maskUnits="userSpaceOnUse" x="4" y="5" width="40" height="39">
<path d="M34.5014 16.1866C35.6619 16.1866 36.7748 15.7256 37.5953 14.9051C38.4159 14.0845 38.8769 12.9716 38.8769 11.8112C38.8769 10.6507 38.4159 9.53782 37.5953 8.71726C36.7748 7.89671 35.6619 7.43573 34.5014 7.43573C33.341 7.43573 32.2281 7.89671 31.4075 8.71726C30.587 9.53782 30.126 10.6507 30.126 11.8112C30.126 12.9716 30.587 14.0845 31.4075 14.9051C32.2281 15.7256 33.341 16.1866 34.5014 16.1866Z" fill="white" stroke="white" stroke-width="3.50035"/>
<path d="M13.4992 17.7355L20.5025 15.3098L30.1258 19.9031L20.5025 27.0762L30.1258 33.4118L24.0072 41.5623M33.9062 21.9998L36.2532 23.2765L41.502 18.3446M17.7425 30.6649L15.1434 34.0882L6.50195 38.9362" stroke="white" stroke-width="3.50035" stroke-linecap="round" stroke-linejoin="round"/>
</mask>
<g mask="url(#mask0_495_332)">
<path d="M2.99805 3.0603H45.0023V45.0645H2.99805V3.0603Z" fill="#F4F4F4"/>
</g>
</svg>
