<svg width="48" height="48" viewBox="0 0 48 48" fill="none" xmlns="http://www.w3.org/2000/svg">
<path d="M10 10L13.5 17H18.75L15.25 10H18.75L22.25 17H27.5L24 10H27.5L31 17H36.25L32.75 10H38C38.9625 10 39.7867 10.343 40.4727 11.029C41.1587 11.715 41.5012 12.5387 41.5 13.5V34.5C41.5 35.4625 41.157 36.2867 40.471 36.9727C39.785 37.6587 38.9613 38.0012 38 38H10C9.0375 38 8.21325 37.657 7.52725 36.971C6.84125 36.285 6.49884 35.4613 6.5 34.5V13.5C6.5 12.5375 6.843 11.7133 7.529 11.0273C8.215 10.3413 9.03867 9.99884 10 10Z" fill="#F4F4F4"/>
</svg>
