<svg width="48" height="48" viewBox="0 0 48 48" fill="none" xmlns="http://www.w3.org/2000/svg">
<path d="M13.6996 34.3L7.29961 30.8L9.39961 28.7L14.3996 29.4L22.1996 21.6L6.59961 13.1L9.39961 10.3L28.4996 15.2L36.3496 7.44998C36.9163 6.88331 37.6249 6.59998 38.4756 6.59998C39.3263 6.59998 40.0343 6.88331 40.5996 7.44998C41.1663 8.01664 41.4496 8.72531 41.4496 9.57598C41.4496 10.4266 41.1663 11.1346 40.5996 11.7L32.7996 19.5L37.6996 38.6L34.8996 41.4L26.3996 25.8L18.5996 33.6L19.2996 38.6L17.1996 40.7L13.6996 34.3Z" fill="#F4F4F4"/>
</svg>
