<svg width="48" height="48" viewBox="0 0 48 48" fill="none" xmlns="http://www.w3.org/2000/svg">
<path d="M35 24C34.2044 24 33.4413 23.6839 32.8787 23.1213C32.3161 22.5587 32 21.7956 32 21C32 20.2044 32.3161 19.4413 32.8787 18.8787C33.4413 18.3161 34.2044 18 35 18C35.7956 18 36.5587 18.3161 37.1213 18.8787C37.6839 19.4413 38 20.2044 38 21C38 21.7956 37.6839 22.5587 37.1213 23.1213C36.5587 23.6839 35.7956 24 35 24ZM29 16C28.2044 16 27.4413 15.6839 26.8787 15.1213C26.3161 14.5587 26 13.7956 26 13C26 12.2044 26.3161 11.4413 26.8787 10.8787C27.4413 10.3161 28.2044 10 29 10C29.7956 10 30.5587 10.3161 31.1213 10.8787C31.6839 11.4413 32 12.2044 32 13C32 13.7956 31.6839 14.5587 31.1213 15.1213C30.5587 15.6839 29.7956 16 29 16ZM19 16C18.2044 16 17.4413 15.6839 16.8787 15.1213C16.3161 14.5587 16 13.7956 16 13C16 12.2044 16.3161 11.4413 16.8787 10.8787C17.4413 10.3161 18.2044 10 19 10C19.7956 10 20.5587 10.3161 21.1213 10.8787C21.6839 11.4413 22 12.2044 22 13C22 13.7956 21.6839 14.5587 21.1213 15.1213C20.5587 15.6839 19.7956 16 19 16ZM13 24C12.2044 24 11.4413 23.6839 10.8787 23.1213C10.3161 22.5587 10 21.7956 10 21C10 20.2044 10.3161 19.4413 10.8787 18.8787C11.4413 18.3161 12.2044 18 13 18C13.7956 18 14.5587 18.3161 15.1213 18.8787C15.6839 19.4413 16 20.2044 16 21C16 21.7956 15.6839 22.5587 15.1213 23.1213C14.5587 23.6839 13.7956 24 13 24ZM24 6C19.2261 6 14.6477 7.89642 11.2721 11.2721C7.89642 14.6477 6 19.2261 6 24C6 28.7739 7.89642 33.3523 11.2721 36.7279C14.6477 40.1036 19.2261 42 24 42C24.7956 42 25.5587 41.6839 26.1213 41.1213C26.6839 40.5587 27 39.7957 27 39C27 38.22 26.7 37.52 26.22 37C25.76 36.46 25.46 35.76 25.46 35C25.46 34.2044 25.7761 33.4413 26.3387 32.8787C26.9013 32.3161 27.6644 32 28.46 32H32C34.6522 32 37.1957 30.9464 39.0711 29.0711C40.9464 27.1957 42 24.6522 42 22C42 13.16 33.94 6 24 6Z" fill="#F4F4F4"/>
</svg>
