<svg width="1007" height="1191" viewBox="0 0 1007 1191" fill="none" xmlns="http://www.w3.org/2000/svg">
<path d="M1006.48 979.138L739.111 1190.98C738.131 1187.14 737.203 1183.24 736.336 1179.29C731.621 1158.6 728.559 1136.48 725.496 1114.37C718.768 1065.77 712.041 1017.18 687.764 983.67C660.986 946.709 613.727 927.357 566.467 908.005C551.385 901.828 536.303 895.652 521.887 888.904C462.297 861.009 415.6 822.032 388.389 766.3C377.297 743.034 369.553 716.89 361.811 690.746C350.875 653.822 339.939 616.898 319.57 588.086C292.297 550.046 247.943 526.691 203.59 503.335C190.867 496.635 178.145 489.935 165.824 482.889C110.254 451.539 63.5547 412.562 36.3438 356.83C11.6152 304.957 3.5332 238.772 0 199.913L252.311 0C253.803 5.25708 255.201 10.6201 256.486 16.0837C261.504 36.7063 264.889 58.7751 268.273 80.8438C275.713 129.334 283.15 177.824 307.914 210.972C335.23 247.537 382.768 266.196 430.303 284.854C445.475 290.809 460.646 296.764 475.16 303.302C535.152 330.321 582.416 368.611 610.439 423.939C621.869 447.038 629.994 473.065 638.117 499.092C649.592 535.853 661.066 572.615 681.857 601.126C709.686 638.762 754.373 661.467 799.062 684.17C811.883 690.684 824.703 697.197 837.125 704.063C893.148 734.596 940.412 772.886 968.436 828.214C992.768 877.383 1002.12 939.816 1006.48 979.138Z" fill="url(#paint0_linear_660_1064)"/>
<defs>
<linearGradient id="paint0_linear_660_1064" x1="503.242" y1="0" x2="503.242" y2="1190.98" gradientUnits="userSpaceOnUse">
<stop stop-color="#FDC6B3"/>
<stop offset="1" stop-color="#FD4505"/>
</linearGradient>
</defs>
</svg>
