<svg width="46" height="46" viewBox="0 0 46 46" fill="none" xmlns="http://www.w3.org/2000/svg">
<path fill-rule="evenodd" clip-rule="evenodd" d="M27.4965 20.5582V14.7392H30.0917V26.8199C30.0917 27.8741 30.1339 29.0126 30.176 29.7084H27.8569L27.7514 28.0849H27.7093C27.0979 29.2234 25.8539 29.9403 24.357 29.9403C21.9114 29.9403 19.9717 27.853 19.9717 24.6905C19.9525 21.2539 22.1011 19.2089 24.5679 19.2089C25.9804 19.2089 26.9924 19.7992 27.4563 20.5582H27.4984H27.4965ZM27.4122 26.0188C27.4754 25.7869 27.4965 25.5339 27.4965 25.2598V23.7207C27.4965 23.5099 27.4774 23.2569 27.4333 23.046C27.2033 22.034 26.3791 21.2118 25.1984 21.2118C23.5329 21.2118 22.6052 22.6876 22.6052 24.6062C22.6052 26.4826 23.5329 27.853 25.1774 27.853C26.2315 27.853 27.1592 27.1362 27.4122 26.0188Z" fill="#F4F4F4"/>
<path d="M16.0138 29.7083V15.4982H18.607V29.7083H16.0138Z" fill="#F4F4F4"/>
<path fill-rule="evenodd" clip-rule="evenodd" d="M33.0779 5.42994C26.3798 4.68742 19.6202 4.68742 12.9222 5.42994C9.06587 5.86119 5.95129 8.89911 5.49896 12.7746C4.70429 19.5684 4.70429 26.4317 5.49896 33.2254C5.95129 37.1009 9.06396 40.1389 12.9222 40.5701C19.6203 41.3119 26.3798 41.3119 33.0779 40.5701C36.9342 40.1389 40.0488 37.1009 40.5011 33.2254C41.2957 26.4317 41.2957 19.5684 40.5011 12.7746C40.0488 8.89911 36.9361 5.86119 33.0779 5.42994ZM13.2404 8.28577C19.727 7.56678 26.2731 7.56678 32.7597 8.28577C35.3089 8.57327 37.3501 10.5839 37.6472 13.11C38.4157 19.681 38.4157 26.3191 37.6472 32.89C37.4935 34.1264 36.9276 35.2748 36.0407 36.1498C35.1539 37.0248 33.998 37.5753 32.7597 37.7124C26.2731 38.4314 19.7269 38.4314 13.2404 37.7124C12.0021 37.5753 10.8462 37.0248 9.95933 36.1498C9.0725 35.2748 8.50654 34.1264 8.35287 32.89C7.58438 26.3191 7.58438 19.681 8.35287 13.11C8.50654 11.8737 9.0725 10.7253 9.95933 9.85026C10.8462 8.97524 12.0021 8.42283 13.2404 8.28577Z" fill="#F4F4F4"/>
</svg>
