<svg width="48" height="48" viewBox="0 0 48 48" fill="none" xmlns="http://www.w3.org/2000/svg">
<path fill-rule="evenodd" clip-rule="evenodd" d="M17.3342 2.49999C15.6001 2.4987 13.9107 3.04944 12.5106 4.07244C11.1104 5.09544 10.0723 6.53758 9.54653 8.18998C9.02076 9.84239 9.03464 11.6193 9.58616 13.2633C10.1377 14.9072 11.1982 16.333 12.6142 17.334C11.5481 18.0881 10.6787 19.0871 10.079 20.2471C9.47934 21.4071 9.16697 22.6942 9.16816 24C9.16816 26.752 10.5302 29.188 12.6182 30.666C11.4743 31.4757 10.5581 32.5661 9.95764 33.8324C9.3572 35.0987 9.09275 36.4982 9.18974 37.8963C9.28673 39.2943 9.74189 40.6439 10.5114 41.8152C11.281 42.9864 12.339 43.9399 13.5837 44.5839C14.8284 45.2279 16.2179 45.5407 17.6185 45.4922C19.0191 45.4438 20.3836 45.0357 21.5808 44.3072C22.7781 43.5788 23.7677 42.5545 24.4544 41.3328C25.1412 40.1112 25.502 38.7334 25.5022 37.332V30.324C26.3517 31.0123 27.3308 31.5229 28.3814 31.8257C29.432 32.1284 30.5328 32.2171 31.6183 32.0865C32.7038 31.9558 33.7521 31.6085 34.7008 31.0652C35.6496 30.5218 36.4796 29.7934 37.1416 28.9233C37.8036 28.0531 38.2842 27.0589 38.5547 25.9995C38.8252 24.9401 38.8803 23.8372 38.7165 22.7562C38.5528 21.6751 38.1737 20.638 37.6016 19.7062C37.0295 18.7745 36.2761 17.9671 35.3862 17.332C36.8021 16.331 37.8626 14.9052 38.4142 13.2613C38.9657 11.6173 38.9796 9.84039 38.4538 8.18798C37.928 6.53558 36.8899 5.09344 35.4898 4.07044C34.0896 3.04744 32.4002 2.4967 30.6662 2.49799H17.3382L17.3342 2.49999ZM22.5002 29.166H17.3342C16.6558 29.166 15.984 29.0324 15.3572 28.7728C14.7305 28.5131 14.161 28.1326 13.6812 27.6529C13.2015 27.1732 12.821 26.6037 12.5614 25.9769C12.3018 25.3502 12.1682 24.6784 12.1682 24C12.1682 23.3216 12.3018 22.6498 12.5614 22.023C12.821 21.3963 13.2015 20.8268 13.6812 20.3471C14.161 19.8674 14.7305 19.4868 15.3572 19.2272C15.984 18.9676 16.6558 18.834 17.3342 18.834H22.5002V29.166ZM17.3342 15.834H22.5002V5.49999H17.3342C15.9638 5.49999 14.6495 6.04437 13.6805 7.01337C12.7115 7.98237 12.1672 9.29661 12.1672 10.667C12.1672 12.0374 12.7115 13.3516 13.6805 14.3206C14.6495 15.2896 15.9638 15.834 17.3342 15.834ZM35.8342 10.666C35.8347 12.0354 35.2915 13.349 34.3239 14.3181C33.3563 15.2871 32.0436 15.8324 30.6742 15.834H25.5002V5.49999H30.6682C31.3466 5.49999 32.0183 5.63361 32.6451 5.89323C33.2719 6.15284 33.8414 6.53337 34.3211 7.01307C34.8008 7.49278 35.1813 8.06228 35.4409 8.68905C35.7005 9.31581 35.8342 9.98758 35.8342 10.666ZM25.5002 23.994C25.5018 22.626 26.0459 21.3144 27.0132 20.3471C27.9806 19.3797 29.2921 18.8356 30.6602 18.834H30.6722C31.6934 18.8352 32.6914 19.139 33.54 19.7071C34.3886 20.2752 35.0498 21.0821 35.4401 22.0258C35.8303 22.9695 35.9321 24.0077 35.7326 25.0093C35.5331 26.0108 35.0412 26.9308 34.3191 27.6529C33.597 28.375 32.677 28.8669 31.6755 29.0664C30.6739 29.266 29.6357 29.1642 28.692 28.7739C27.7483 28.3836 26.9414 27.7224 26.3733 26.8738C25.8052 26.0252 25.5013 25.0272 25.5002 24.006V23.994ZM17.3342 32.166C16.3125 32.166 15.3138 32.4689 14.4643 33.0365C13.6148 33.604 12.9527 34.4107 12.5616 35.3546C12.1705 36.2984 12.0681 37.337 12.2673 38.3391C12.4664 39.3411 12.9583 40.2616 13.6805 40.9842C14.4028 41.7068 15.3231 42.1989 16.3251 42.3985C17.3271 42.598 18.3657 42.496 19.3097 42.1053C20.2537 41.7146 21.0607 41.0528 21.6286 40.2035C22.1965 39.3542 22.4998 38.3556 22.5002 37.334V32.166H17.3342Z" fill="#F4F4F4"/>
</svg>
