<?xml version="1.0" encoding="UTF-8"?>
<svg id="test" xmlns="http://www.w3.org/2000/svg" viewBox="0 0 500 500">
  <path d="m384.22,276.5c-14.61,0-26.5-11.89-26.5-26.5s11.89-26.5,26.5-26.5,26.5,11.89,26.5,26.5-11.89,26.5-26.5,26.5Zm0-50c-12.96,0-23.5,10.54-23.5,23.5s10.54,23.5,23.5,23.5,23.5-10.54,23.5-23.5-10.54-23.5-23.5-23.5Z"/>
  <path d="m310.36,128c12.13,0,22,9.87,22,22s-9.87,22-22,22h-96.26c-42.91.09-77.82,35.08-77.82,78s34.99,78,78,78,78-34.99,78-78.03c.02-12.12,9.89-21.97,22-21.97s21.98,9.86,22,22c0,32.58-12.69,63.22-35.74,86.27-23.04,23.04-53.68,35.73-86.26,35.73s-63.23-12.69-86.27-35.73c-23.04-23.04-35.73-53.68-35.73-86.27s12.67-63.18,35.68-86.21c23.01-23.03,53.6-35.74,86.15-35.79h96.25m0-3h-96.25c-68.96.09-124.83,56.02-124.83,125s55.96,125,125,125,125-55.97,125-125v-.03c-.02-13.8-11.21-24.97-25-24.97s-24.98,11.17-25,24.97v.03c0,41.42-33.58,75-75,75s-75-33.58-75-75,33.49-74.91,74.83-75h96.25c13.81,0,25-11.19,25-25s-11.19-25-25-25h0Z"/>
  <path d="m384.23,300c-13.8,0-24.98,11.17-25,24.97v.03c0,41.42-33.58,75-75,75-.13,0-.26,0-.39-.01h-45c-13.81.01-25,11.2-25,25.01s11.19,25,25,25h46.28c68.62-.49,124.11-56.27,124.11-125v-.03c-.02-13.8-11.21-24.97-25-24.97Z"/>
  <path d="m203.89,125.23c-17.99,1.53-34.92,6.71-49.99,14.78v-65.53c0-6.76,2.8-12.88,7.32-17.31,4.53-4.42,10.77-7.17,17.68-7.17,13.81,0,25,10.96,25,24.48v50.75Zm0,246.21v-44.33s0,0,0,0v-151.52c-20.37,2.92-38.14,13.68-49.99,29.06v90.34s0,0,0,0c0,.14-.01.28-.01.42v130.09h0c0,13.52,11.19,24.48,25,24.48,3.88,0,7.56-.87,10.84-2.41,8.38-3.95,14.16-12.35,14.16-22.07v-51.06s0,0,0,0v-3.01s0,0,0,0Z"/>
</svg>