<svg width="46" height="45" viewBox="0 0 46 45" fill="none" xmlns="http://www.w3.org/2000/svg">
<path d="M8.23438 28.125V10.1953C8.23438 8.23727 9.0122 6.35942 10.3968 4.97488C11.7813 3.59033 13.6591 2.8125 15.6172 2.8125C17.5752 2.8125 19.4531 3.59033 20.8376 4.97488C22.2222 6.35942 23 8.23727 23 10.1953V34.8047C23 36.7627 23.7778 38.6406 25.1624 40.0251C26.5469 41.4097 28.4248 42.1875 30.3828 42.1875C32.3409 42.1875 34.2187 41.4097 35.6032 40.0251C36.9878 38.6406 37.7656 36.7627 37.7656 34.8047V16.875" stroke="#F4F4F4" stroke-width="2" stroke-miterlimit="10" stroke-linecap="square"/>
<path d="M37.7656 12.6562C40.4839 12.6562 42.6875 10.4527 42.6875 7.73438C42.6875 5.0161 40.4839 2.8125 37.7656 2.8125C35.0473 2.8125 32.8438 5.0161 32.8438 7.73438C32.8438 10.4527 35.0473 12.6562 37.7656 12.6562Z" stroke="#F4F4F4" stroke-width="2" stroke-miterlimit="10" stroke-linecap="square"/>
<path d="M8.23438 42.1875C10.9527 42.1875 13.1562 39.9839 13.1562 37.2656C13.1562 34.5473 10.9527 32.3438 8.23438 32.3438C5.5161 32.3438 3.3125 34.5473 3.3125 37.2656C3.3125 39.9839 5.5161 42.1875 8.23438 42.1875Z" stroke="#F4F4F4" stroke-width="2" stroke-miterlimit="10" stroke-linecap="square"/>
</svg>
