<svg width="48" height="48" viewBox="0 0 48 48" fill="none" xmlns="http://www.w3.org/2000/svg">
<path d="M24 10C17.592 10 13.608 13.192 12 19.6C14.4 16.408 17.208 15.208 20.4 16C22.224 16.456 23.544 17.776 24.984 19.24C27.336 21.64 30 24.4 36 24.4C42.408 24.4 46.392 21.208 48 14.8C45.6 17.992 42.792 19.192 39.6 18.4C37.776 17.944 36.48 16.624 35.016 15.16C32.664 12.76 30 10 24 10ZM12 24.4C5.592 24.4 1.608 27.592 0 34C2.4 30.808 5.208 29.608 8.4 30.4C10.224 30.856 11.52 32.176 12.984 33.64C15.336 36.04 18 38.8 24 38.8C30.408 38.8 34.392 35.608 36 29.2C33.6 32.392 30.792 33.592 27.6 32.8C25.776 32.344 24.48 31.024 23.016 29.56C20.664 27.16 18 24.4 12 24.4Z" fill="#F4F4F4"/>
</svg>
