<svg width="46" height="46" viewBox="0 0 46 46" fill="none" xmlns="http://www.w3.org/2000/svg">
<path d="M30.5383 19.4407V29.7083H27.924V19.4407H30.5383ZM27.7764 16.5734C27.7764 15.7722 28.3648 15.1608 29.2292 15.1608C30.1166 15.1608 30.6648 15.7722 30.6859 16.5734C30.6859 17.3535 30.1147 17.9649 29.21 17.9649C28.3456 17.9649 27.7764 17.3535 27.7764 16.5734Z" fill="#F4F4F4"/>
<path fill-rule="evenodd" clip-rule="evenodd" d="M24.2152 29.7083L22.9291 25.6814H18.4173L17.1944 29.7083H14.5168L19.0708 15.4982H22.3809L26.9982 29.7083H24.2152ZM19.9353 20.2208L18.8389 23.7207H22.4863L21.3689 20.2208C21.1466 19.5213 20.953 18.7527 20.7748 18.0493C20.7342 17.8875 20.6933 17.7259 20.6521 17.5643H20.6099C20.5371 17.8461 20.4662 18.147 20.3914 18.4556C20.2496 19.0498 20.102 19.6669 19.9353 20.2208Z" fill="#F4F4F4"/>
<path fill-rule="evenodd" clip-rule="evenodd" d="M33.0779 5.42994C26.3798 4.68742 19.6202 4.68742 12.9222 5.42994C9.06587 5.86119 5.95129 8.89911 5.49896 12.7746C4.70429 19.5684 4.70429 26.4317 5.49896 33.2254C5.95129 37.1009 9.06396 40.1389 12.9222 40.5701C19.6203 41.3119 26.3798 41.3119 33.0779 40.5701C36.9342 40.1389 40.0488 37.1009 40.5011 33.2254C41.2957 26.4317 41.2957 19.5684 40.5011 12.7746C40.0488 8.89911 36.9361 5.86119 33.0779 5.42994ZM13.2404 8.28577C19.727 7.56678 26.2731 7.56678 32.7597 8.28577C35.3089 8.57327 37.3501 10.5839 37.6472 13.11C38.4157 19.681 38.4157 26.3191 37.6472 32.89C37.4935 34.1264 36.9276 35.2748 36.0407 36.1498C35.1539 37.0248 33.998 37.5753 32.7597 37.7124C26.2731 38.4314 19.7269 38.4314 13.2404 37.7124C12.0021 37.5753 10.8462 37.0248 9.95933 36.1498C9.0725 35.2748 8.50654 34.1264 8.35287 32.89C7.58438 26.3191 7.58438 19.681 8.35287 13.11C8.50654 11.8737 9.0725 10.7253 9.95933 9.85026C10.8462 8.97524 12.0021 8.42283 13.2404 8.28577Z" fill="#F4F4F4"/>
</svg>
